<svg xmlns="http://www.w3.org/2000/svg" width="1200" height="800" viewBox="0 0 1200 800">
  <defs>
    <linearGradient id="g1" x1="0" y1="0" x2="1" y2="1">
      <stop offset="0%" stop-color="#6366F1"/>
      <stop offset="100%" stop-color="#A855F7"/>
    </linearGradient>
  </defs>
  <rect width="1200" height="800" fill="#0b0b0f"/>
  <rect x="60" y="60" width="1080" height="120" rx="12" fill="#111827" stroke="#1f2937"/>
  <rect x="80" y="95" width="540" height="50" rx="8" fill="#0b0b0f" stroke="#374151"/>
  <rect x="640" y="95" width="180" height="50" rx="8" fill="#111827"/>
  <text x="96" y="126" fill="#9CA3AF" font-family="Inter,system-ui" font-size="20">friends on the beach at sunset</text>
  <g transform="translate(60,220)">
    <rect x="0" y="0" width="1080" height="520" rx="16" fill="#111827" stroke="#1f2937"/>
    <g transform="translate(24,24)">
      <rect x="0" y="0" width="320" height="200" rx="12" fill="url(#g1)"/>
      <rect x="352" y="0" width="320" height="200" rx="12" fill="#111827" stroke="#1f2937"/>
      <rect x="704" y="0" width="320" height="200" rx="12" fill="#111827" stroke="#1f2937"/>
      <rect x="0" y="232" width="320" height="200" rx="12" fill="#111827" stroke="#1f2937"/>
      <rect x="352" y="232" width="320" height="200" rx="12" fill="#111827" stroke="#1f2937"/>
      <rect x="704" y="232" width="320" height="200" rx="12" fill="#111827" stroke="#1f2937"/>
    </g>
  </g>
  <text x="72" y="760" fill="#9CA3AF" font-family="Inter,system-ui" font-size="18">Search results (placeholder)</text>
</svg>

